<?xml version="1.0" standalone="no"?>
<!DOCTYPE svg PUBLIC "-//W3C//DTD SVG 20010904//EN"
 "http://www.w3.org/TR/2001/REC-SVG-20010904/DTD/svg10.dtd">
<svg version="1.0" xmlns="http://www.w3.org/2000/svg"
 width="512.000000pt" height="512.000000pt" viewBox="0 0 512.000000 512.000000"
 preserveAspectRatio="xMidYMid meet">

<g transform="translate(0.000000,512.000000) scale(0.100000,-0.100000)"
fill="#000000" stroke="none">
<path d="M1050 4469 c-199 -26 -374 -204 -400 -409 -13 -100 -13 -2900 0
-3000 27 -210 200 -383 410 -410 100 -13 2900 -13 3000 0 211 27 383 199 410
410 13 100 13 2900 0 3000 -27 211 -199 383 -410 410 -93 12 -2918 11 -3010
-1z m790 -965 c14 -9 181 -172 373 -363 l347 -346 348 346 c191 191 358 354
372 363 36 23 124 21 166 -5 65 -40 93 -128 63 -206 -5 -15 -168 -187 -362
-381 l-352 -352 346 -348 c191 -191 354 -358 363 -372 10 -15 16 -45 16 -80 0
-101 -59 -160 -160 -160 -35 0 -65 6 -80 16 -14 9 -181 172 -372 363 l-348
346 -352 -352 c-194 -194 -366 -357 -381 -362 -78 -30 -166 -2 -206 63 -26 42
-28 130 -5 166 9 14 172 181 363 373 l346 347 -346 348 c-191 191 -354 358
-363 372 -23 36 -21 124 4 166 32 50 76 74 140 74 35 0 65 -6 80 -16z"/>
</g>
</svg>
